<svg width="24" height="24" viewBox="0 0 24 24" fill="none" xmlns="http://www.w3.org/2000/svg">
<g id="edit-2 1">
<path id="Vector" d="M21 22H3C2.59 22 2.25 21.66 2.25 21.25C2.25 20.84 2.59 20.5 3 20.5H21C21.41 20.5 21.75 20.84 21.75 21.25C21.75 21.66 21.41 22 21 22Z" fill="black"/>
<path id="Vector_2" d="M19.0206 3.48162C17.0806 1.54162 15.1806 1.49162 13.1906 3.48162L11.9806 4.69162C11.8806 4.79162 11.8406 4.95162 11.8806 5.09162C12.6406 7.74162 14.7606 9.86162 17.4106 10.6216C17.4506 10.6316 17.4906 10.6416 17.5306 10.6416C17.6406 10.6416 17.7406 10.6016 17.8206 10.5216L19.0206 9.31162C20.0106 8.33162 20.4906 7.38162 20.4906 6.42162C20.5006 5.43162 20.0206 4.47162 19.0206 3.48162Z" fill="black"/>
<path id="Vector_3" d="M15.6103 11.5309C15.3203 11.3909 15.0403 11.2509 14.7703 11.0909C14.5503 10.9609 14.3403 10.8209 14.1303 10.6709C13.9603 10.5609 13.7603 10.4009 13.5703 10.2409C13.5503 10.2309 13.4803 10.1709 13.4003 10.0909C13.0703 9.81086 12.7003 9.45086 12.3703 9.05086C12.3403 9.03086 12.2903 8.96086 12.2203 8.87086C12.1203 8.75086 11.9503 8.55086 11.8003 8.32086C11.6803 8.17086 11.5403 7.95086 11.4103 7.73086C11.2503 7.46086 11.1103 7.19086 10.9703 6.91086C10.9491 6.86547 10.9286 6.8203 10.9088 6.7754C10.7612 6.44208 10.3265 6.34463 10.0688 6.60239L4.34032 12.3309C4.21032 12.4609 4.09032 12.7109 4.06032 12.8809L3.52032 16.7109C3.42032 17.3909 3.61032 18.0309 4.03032 18.4609C4.39032 18.8109 4.89032 19.0009 5.43032 19.0009C5.55032 19.0009 5.67032 18.9909 5.79032 18.9709L9.63032 18.4309C9.81032 18.4009 10.0603 18.2809 10.1803 18.1509L15.9016 12.4296C16.1612 12.17 16.0633 11.7246 15.7257 11.5805C15.6877 11.5643 15.6492 11.5477 15.6103 11.5309Z" fill="black"/>
</g>
</svg>
